<?xml version="1.0" encoding="UTF-8"?>
<svg width="20px" height="20px" viewBox="0 0 20 20" version="1.1" xmlns="http://www.w3.org/2000/svg" xmlns:xlink="http://www.w3.org/1999/xlink">
    <title>Shape</title>
    <g id="Symbols" stroke="none" stroke-width="1" fill="none" fill-rule="evenodd">
        <g id="category/all-category" transform="translate(0.000000, -3.000000)" fill="#464647" fill-rule="nonzero">
            <path d="M2.39246165,3 C1.07261272,3 8.70414851e-14,4.07260467 8.70414851e-14,5.39608616 C8.70414851e-14,6.71957169 1.07260467,7.79217233 2.39608616,7.79217233 C3.71957169,7.79217233 4.79217233,6.71956766 4.79217233,5.39608616 C4.78853637,4.07260064 3.71593106,3 2.39244151,3 L2.39246165,3 Z M2.39608616,10.6039138 C1.07260064,10.6039138 8.70414851e-14,11.6765185 8.70414851e-14,13 C8.70414851e-14,14.3234855 1.07260467,15.3960862 2.39608616,15.3960862 C3.71957169,15.3960862 4.79217233,14.3234815 4.79217233,13 C4.79217233,11.6765145 3.71956766,10.6039138 2.39608616,10.6039138 Z M2.39608616,18.2078277 C1.07260064,18.2078277 8.70414851e-14,19.2804323 8.70414851e-14,20.6039138 C8.70414851e-14,21.9273994 1.07260467,23 2.39608616,23 C3.71957169,23 4.79217233,21.9273953 4.79217233,20.6039138 C4.79217233,19.2804283 3.71956766,18.2078277 2.39608616,18.2078277 Z M10,3 C8.67651448,3 7.60391384,4.07260467 7.60391384,5.39608616 C7.60391384,6.71957169 8.6765185,7.79217233 10,7.79217233 C11.3234855,7.79217233 12.3960862,6.71956766 12.3960862,5.39608616 C12.3924502,4.07260064 11.3198449,3 10,3 Z M10,10.6039138 C8.67651448,10.6039138 7.60391384,11.6765185 7.60391384,13 C7.60391384,14.3234855 8.6765185,15.3960862 10,15.3960862 C11.3234855,15.3960862 12.3960862,14.3234815 12.3960862,13 C12.3924502,11.6765145 11.3198449,10.6039138 10,10.6039138 Z M10,18.2078277 C8.67651448,18.2078277 7.60391384,19.2804323 7.60391384,20.6039138 C7.60391384,21.9273994 8.6765185,23 10,23 C11.3234855,23 12.3960862,21.9273953 12.3960862,20.6039138 C12.3924502,19.2804283 11.3198449,18.2078277 10,18.2078277 Z M17.6039138,7.79217233 C18.9273994,7.79217233 20,6.71956766 20,5.39608616 C20,4.07260064 18.9273953,3 17.6039138,3 C16.2804283,3 15.2078277,4.07260467 15.2078277,5.39608616 C15.2078277,6.71957169 16.2804323,7.79217233 17.6039138,7.79217233 Z M17.6039138,10.6039138 C16.2804283,10.6039138 15.2078277,11.6765185 15.2078277,13 C15.2078277,14.3234855 16.2804323,15.3960862 17.6039138,15.3960862 C18.9273994,15.3960862 20,14.3234815 20,13 C19.996364,11.6765145 18.9273953,10.6039138 17.6039138,10.6039138 Z M17.6039138,18.2078277 C16.2804283,18.2078277 15.2078277,19.2804323 15.2078277,20.6039138 C15.2078277,21.9273994 16.2804323,23 17.6039138,23 C18.9273994,23 20,21.9273953 20,20.6039138 C19.996364,19.2804283 18.9273953,18.2078277 17.6039138,18.2078277 Z" id="Shape"></path>
        </g>
    </g>
</svg>