<?xml version="1.0" encoding="UTF-8"?>
<svg width="12px" height="12px" viewBox="0 0 12 12" version="1.1" xmlns="http://www.w3.org/2000/svg" xmlns:xlink="http://www.w3.org/1999/xlink">
    <title>Shape</title>
    <g id="Symbols" stroke="none" stroke-width="1" fill="none" fill-rule="evenodd">
        <g id="category/title" transform="translate(0.000000, -7.000000)" fill="#464647" fill-rule="nonzero">
            <path d="M2.52233939,7 C1.13084083,7 -2.06501483e-13,8.13083234 -2.06501483e-13,9.52616067 C-2.06501483e-13,10.9214932 1.13083234,12.0523213 2.52616067,12.0523213 C3.92149324,12.0523213 5.05232133,10.921489 5.05232133,9.52616067 C5.048488,8.13082809 3.91765498,7 2.52231816,7 L2.52233939,7 Z M2.52616067,13.9476787 C1.13082809,13.9476787 -2.06501483e-13,15.078511 -2.06501483e-13,16.4738393 C-2.06501483e-13,17.8691719 1.13083234,19 2.52616067,19 C3.92149324,19 5.05232133,17.8691677 5.05232133,16.4738393 C5.05232133,15.0785068 3.92148899,13.9476787 2.52616067,13.9476787 Z M9.47383933,13.9476787 C8.07850676,13.9476787 6.94767867,15.078511 6.94767867,16.4738393 C6.94767867,17.8691719 8.07851101,19 9.47383933,19 C10.8691719,19 12,17.8691677 12,16.4738393 C12,15.0785068 10.8691677,13.9476787 9.47383933,13.9476787 Z M9.47383933,7 C8.07850676,7 6.94767867,8.13083234 6.94767867,9.52616067 C6.94767867,10.9214932 8.07851101,12.0523213 9.47383933,12.0523213 C10.8691719,12.0523213 12,10.921489 12,9.52616067 C11.9961667,8.13082809 10.8653336,7 9.47383933,7 Z" id="Shape"></path>
        </g>
    </g>
</svg>