<?xml version="1.0" encoding="UTF-8"?>
<svg width="519px" height="120px" viewBox="0 0 519 120" version="1.1" xmlns="http://www.w3.org/2000/svg" xmlns:xlink="http://www.w3.org/1999/xlink">
    <title>Epozh</title>
    <g id="Page-1" stroke="none" stroke-width="1" fill="none" fill-rule="evenodd">
        <g id="Index" transform="translate(-381.000000, -242.000000)" fill="#F9F9F9" fill-rule="nonzero">
            <path d="M449.584128,359.085714 L449.584128,329.085714 L417.521048,329.085714 L417.521048,315.885714 L447.869525,315.885714 L447.869525,287.428571 L417.521048,287.428571 L417.521048,274.742857 L448.383906,274.742857 L448.383906,244.742857 L381,244.742857 L381,359.085714 L449.584128,359.085714 Z M436.896065,345.371429 L398.146032,345.371429 L398.146032,258.457143 L436.896065,258.457143 L436.896065,262.571429 L402.604,262.571429 L402.604,299.6 L435.181461,299.6 L435.181461,303.714286 L402.604,303.714286 L402.604,341.257143 L436.896065,341.257143 L436.896065,345.371429 Z M504.706024,359.085714 L504.706024,331.828571 C512.021664,331.828571 518.8515,331.028571 525.195532,329.428571 C531.539564,327.828571 537.083448,325.314286 541.827183,321.885714 C546.570919,318.457143 550.314469,313.971429 553.057834,308.428571 C555.801199,302.885714 557.172882,296.171429 557.172882,288.285714 C557.172882,280.4 555.801199,273.685714 553.057834,268.142857 C550.314469,262.6 546.570919,258.114286 541.827183,254.685714 C537.083448,251.257143 531.539564,248.742857 525.195532,247.142857 C518.8515,245.542857 512.021664,244.742857 504.706024,244.742857 L504.706024,244.742857 L468.184975,244.742857 L468.184975,359.085714 L504.706024,359.085714 Z M489.788976,345.371429 L485.331007,345.371429 L485.331007,258.457143 L504.706024,258.457143 C509.849833,258.457143 514.622146,259.057143 519.02296,260.257143 C523.423775,261.457143 527.224479,263.257143 530.425072,265.657143 C533.625664,268.057143 536.111839,271.142857 537.883596,274.914286 C539.655352,278.685714 540.541231,283.142857 540.541231,288.285714 C540.541231,293.428571 539.655352,297.885714 537.883596,301.657143 C536.111839,305.428571 533.625664,308.514286 530.425072,310.914286 C527.224479,313.314286 523.423775,315.114286 519.02296,316.314286 C514.622146,317.514286 509.849833,318.114286 504.706024,318.114286 L504.706024,318.114286 L489.788976,318.114286 L489.788976,345.371429 Z M504.706024,314 C508.821071,314 512.736082,313.571429 516.451056,312.714286 C520.166029,311.857143 523.452352,310.457143 526.310024,308.514286 C529.167696,306.571429 531.453834,303.942857 533.168437,300.628571 C534.88304,297.314286 535.740342,293.2 535.740342,288.285714 C535.740342,283.371429 534.88304,279.257143 533.168437,275.942857 C531.453834,272.628571 529.167696,270 526.310024,268.057143 C523.452352,266.114286 520.166029,264.714286 516.451056,263.857143 C512.736082,263 508.821071,262.571429 504.706024,262.571429 L504.706024,262.571429 L489.788976,262.571429 L489.788976,314 L504.706024,314 Z M506.249167,300.971429 L504.706024,300.971429 L504.706024,275.6 L506.249167,275.6 C511.050056,275.6 514.507839,276.714286 516.622516,278.942857 C518.737193,281.171429 519.794532,284.285714 519.794532,288.285714 C519.794532,292.285714 518.737193,295.4 516.622516,297.628571 C514.507839,299.857143 511.050056,300.971429 506.249167,300.971429 L506.249167,300.971429 Z M631.498333,362 C639.728429,362 647.501296,360.428571 654.816937,357.285714 C662.132577,354.142857 668.505186,349.857143 673.934763,344.428571 C679.364339,339 683.650847,332.628571 686.794287,325.314286 C689.937726,318 691.509445,310.228571 691.509445,302 C691.509445,293.771429 689.937726,286 686.794287,278.685714 C683.650847,271.371429 679.364339,265 673.934763,259.571429 C668.505186,254.142857 662.132577,249.857143 654.816937,246.714286 C647.501296,243.571429 639.728429,242 631.498333,242 C623.268238,242 615.49537,243.571429 608.17973,246.714286 C600.864089,249.857143 594.491481,254.142857 589.061904,259.571429 C583.632327,265 579.345819,271.371429 576.20238,278.685714 C573.058941,286 571.487221,293.771429 571.487221,302 C571.487221,310.228571 573.058941,318 576.20238,325.314286 C579.345819,332.628571 583.632327,339 589.061904,344.428571 C594.491481,349.857143 600.864089,354.142857 608.17973,357.285714 C615.49537,360.428571 623.268238,362 631.498333,362 Z M631.498333,345.885714 C625.440069,345.885714 619.753301,344.742857 614.438031,342.457143 C609.122761,340.171429 604.464756,337.028571 600.464015,333.028571 C596.463274,329.028571 593.319835,324.371429 591.033697,319.057143 C588.74756,313.742857 587.604491,308.057143 587.604491,302 C587.604491,295.942857 588.74756,290.257143 591.033697,284.942857 C593.319835,279.628571 596.463274,274.971429 600.464015,270.971429 C604.464756,266.971429 609.122761,263.828571 614.438031,261.542857 C619.753301,259.257143 625.440069,258.114286 631.498333,258.114286 C637.556598,258.114286 643.243365,259.257143 648.558635,261.542857 C653.873905,263.828571 658.53191,266.971429 662.532651,270.971429 C666.533392,274.971429 669.676831,279.628571 671.962969,284.942857 C674.249106,290.257143 675.392175,295.942857 675.392175,302 C675.392175,308.057143 674.249106,313.742857 671.962969,319.057143 C669.676831,324.371429 666.533392,329.028571 662.532651,333.028571 C658.53191,337.028571 653.873905,340.171429 648.558635,342.457143 C643.243365,344.742857 637.556598,345.885714 631.498333,345.885714 Z M631.498333,341.428571 C636.985063,341.428571 642.100296,340.4 646.844032,338.342857 C651.587767,336.285714 655.759969,333.457143 659.360635,329.857143 C662.961302,326.257143 665.790397,322.085714 667.847921,317.342857 C669.905445,312.6 670.934207,307.485714 670.934207,302 C670.934207,296.514286 669.905445,291.4 667.847921,286.657143 C665.790397,281.914286 662.961302,277.742857 659.360635,274.142857 C655.759969,270.542857 651.587767,267.714286 646.844032,265.657143 C642.100296,263.6 636.985063,262.571429 631.498333,262.571429 C626.011603,262.571429 620.89637,263.6 616.152634,265.657143 C611.408899,267.714286 607.236698,270.542857 603.636031,274.142857 C600.035364,277.742857 597.206269,281.914286 595.148745,286.657143 C593.091221,291.4 592.062459,296.514286 592.062459,302 C592.062459,307.485714 593.091221,312.6 595.148745,317.342857 C597.206269,322.085714 600.035364,326.257143 603.636031,329.857143 C607.236698,333.457143 611.408899,336.285714 616.152634,338.342857 C620.89637,340.4 626.011603,341.428571 631.498333,341.428571 Z M631.498333,326 C628.183434,326 625.068571,325.371429 622.153746,324.114286 C619.23892,322.857143 616.695592,321.142857 614.523761,318.971429 C612.351931,316.8 610.637327,314.257143 609.379952,311.342857 C608.122576,308.428571 607.493888,305.314286 607.493888,302 C607.493888,298.685714 608.122576,295.571429 609.379952,292.657143 C610.637327,289.742857 612.351931,287.2 614.523761,285.028571 C616.695592,282.857143 619.23892,281.142857 622.153746,279.885714 C625.068571,278.628571 628.183434,278 631.498333,278 C634.813233,278 637.928095,278.628571 640.842921,279.885714 C643.757746,281.142857 646.301074,282.857143 648.472905,285.028571 C650.644736,287.2 652.359339,289.742857 653.616715,292.657143 C654.87409,295.571429 655.502778,298.685714 655.502778,302 C655.502778,305.314286 654.87409,308.428571 653.616715,311.342857 C652.359339,314.257143 650.644736,316.8 648.472905,318.971429 C646.301074,321.142857 643.757746,322.857143 640.842921,324.114286 C637.928095,325.371429 634.813233,326 631.498333,326 Z M779.208802,359.085714 L790.696643,329.085714 L753.146833,329.085714 L792.925627,244.742857 L719.71207,244.742857 L708.052769,274.742857 L739.601468,274.742857 L699.822673,359.085714 L779.208802,359.085714 Z M770.292865,345.371429 L723.312737,345.371429 L762.40569,262.571429 L727.084864,262.571429 L728.628007,258.457143 L769.435563,258.457143 L730.34261,341.257143 L772.007468,341.257143 L770.292865,345.371429 Z M842.903713,359.085714 L842.903713,316.742857 L863.307491,316.742857 L863.307491,359.085714 L900,359.085714 L900,244.742857 L863.307491,244.742857 L863.307491,283.657143 L842.903713,283.657143 L842.903713,244.742857 L806.382665,244.742857 L806.382665,359.085714 L842.903713,359.085714 Z M827.986665,345.371429 L823.528697,345.371429 L823.528697,258.457143 L827.986665,258.457143 L827.986665,297.885714 L878.396,297.885714 L878.396,258.457143 L882.853968,258.457143 L882.853968,345.371429 L878.396,345.371429 L878.396,302 L827.986665,302 L827.986665,345.371429 Z" id="Epozh"></path>
        </g>
    </g>
</svg>