<?xml version="1.0" encoding="UTF-8"?>
<svg width="798px" height="200px" viewBox="0 0 798 200" version="1.1" xmlns="http://www.w3.org/2000/svg" xmlns:xlink="http://www.w3.org/1999/xlink">
    <title>Group</title>
    <defs>
        <path d="M180,0 C191.045695,0 200,8.954305 200,20 L200,100 C200,155.228475 155.228475,200 100,200 L20,200 C8.954305,200 -2.07194547e-15,191.045695 -1.2246468e-15,180 C-3.92981604e-15,168.955308 8.95267821,160.001627 19.9969898,160 C7.43947132,143.288395 0,122.512988 0,100 C0,44.771525 44.771525,0 100,0 C111.045695,0 120,8.954305 120,20 C120,30.9306357 111.231271,39.813225 100.344489,39.9970929 L100,40 C66.862915,40 40,66.862915 40,100 C40,133.137085 66.862915,160 100,160 C132.805714,160 159.462114,133.671657 159.991962,100.99221 L160,100 L160,20 C160,8.954305 168.954305,0 180,0 Z M300.057095,15.9303416 C345.13819,15.9303416 368.322753,37.1460147 368.322753,73.3650368 C368.322753,92.119223 360.360378,109.818486 344.318534,119.195579 L344.318534,119.195579 L361.99969,148.264568 C366.332159,155.531815 367.268909,159.399866 367.268909,165.260549 C367.268909,178.505693 356.964659,188 342.562127,188 C330.384377,188 325.46644,183.663094 316.684408,168.073677 L316.684408,168.073677 L294.436595,128.338245 L274.647751,128.338245 L274.647751,161.978567 C274.647751,178.622907 265.631532,188 249.823876,188 C234.016219,188 225,178.622907 225,161.978567 L225,161.978567 L225,41.9517749 C225,25.3074347 234.016219,15.9303416 249.823876,15.9303416 L249.823876,15.9303416 Z M411.207595,13 C427.015251,13 436.03147,22.3770931 436.03147,39.0214334 L436.03147,39.0214334 L436.03147,161.978567 C436.03147,178.622907 427.015251,188 411.207595,188 C395.399938,188 386.383719,178.622907 386.383719,161.978567 L386.383719,161.978567 L386.383719,39.0214334 C386.383719,22.3770931 395.399938,13 411.207595,13 Z M555.495626,13 C571.303282,13 580.319501,22.3770931 580.319501,39.0214334 L580.319501,39.0214334 L580.319501,126.345613 C580.319501,166.081045 555.729813,188 514.629906,188 C485.473562,188 464.045405,176.044206 454.20953,154.945747 C451.633468,148.733423 450.46253,143.458808 450.46253,137.480911 C450.46253,123.884126 459.712936,114.858674 473.412905,114.858674 C485.707749,114.858674 492.733375,120.367716 496.597468,133.144005 C499.173531,141.700603 505.145312,146.389149 513.927344,146.389149 C524.817063,146.389149 530.67175,139.35633 530.67175,125.993972 L530.67175,125.993972 L530.67175,39.0214334 C530.67175,22.3770931 539.687969,13 555.495626,13 Z M629.176124,13 C644.983781,13 654,22.3770931 654,39.0214334 L654,39.0214334 L654,161.978567 C654,178.622907 644.983781,188 629.176124,188 C613.368468,188 604.352249,178.622907 604.352249,161.978567 L604.352249,161.978567 L604.352249,39.0214334 C604.352249,22.3770931 613.368468,13 629.176124,13 Z M775.103468,15.9303416 C788.452156,15.9303416 797,23.0803751 797,35.7394508 C797,48.3985265 788.217969,55.5485599 775.103468,55.5485599 L775.103468,55.5485599 L725.104436,55.5485599 L725.104436,82.7421299 L773.112875,82.7421299 C784.939344,82.7421299 792.667531,89.1888814 792.667531,100.558607 C792.667531,111.928332 785.173531,118.375084 773.112875,118.375084 L773.112875,118.375084 L725.104436,118.375084 L725.104436,145.45144 L775.103468,145.45144 C788.217969,145.45144 797,152.601474 797,165.260549 C797,177.919625 788.452156,185.069658 775.103468,185.069658 L775.103468,185.069658 L700.280561,185.069658 C684.472904,185.069658 675.456685,175.692565 675.456685,159.048225 L675.456685,159.048225 L675.456685,41.9517749 C675.456685,25.3074347 684.472904,15.9303416 700.280561,15.9303416 L700.280561,15.9303416 Z M100,60 C122.09139,60 140,77.90861 140,100 C140,122.09139 122.09139,140 100,140 C77.90861,140 60,122.09139 60,100 C60,77.90861 77.90861,60 100,60 Z M295.256251,52.6182184 L274.647751,52.6182184 L274.647751,95.5184193 L295.139158,95.5184193 C309.073314,95.5184193 317.621158,86.9618218 317.621158,74.1855325 C317.621158,61.6436705 308.604939,52.6182184 295.256251,52.6182184 L295.256251,52.6182184 Z" id="path-1"></path>
    </defs>
    <g id="ICON" stroke="none" stroke-width="1" fill="none" fill-rule="evenodd">
        <g id="Artboard" transform="translate(-44.000000, -65.000000)">
            <g id="Group" transform="translate(44.739204, 65.000000)">
                <mask id="mask-2" fill="white">
                    <use xlink:href="#path-1"></use>
                </mask>
                <use id="Combined-Shape" fill="#FFFFFF" fill-rule="nonzero" xlink:href="#path-1"></use>
                <rect id="Color" fill="#2B65D9" mask="url(#mask-2)" x="0" y="0" width="797" height="200"></rect>
            </g>
        </g>
    </g>
</svg>