<?xml version="1.0" encoding="UTF-8"?>
<svg width="70px" height="26px" viewBox="0 0 70 26" version="1.1" xmlns="http://www.w3.org/2000/svg" xmlns:xlink="http://www.w3.org/1999/xlink">
    <title>Shape</title>
    <defs>
        <path d="M22.171175,0 C24.2827003,0 25.9944298,1.71209628 25.9944298,3.82407407 L25.9944298,22.1759259 C25.9944298,24.2879037 24.2827003,26 22.171175,26 L3.82325481,26 C1.71172948,26 0,24.2879037 0,22.1759259 L0,3.82407407 C0,1.71209628 1.71172948,0 3.82325481,0 L22.171175,0 Z M33.8636344,11.6372582 C36.3135282,11.6372582 37.807067,13.3827018 37.8366928,16.2975927 L37.8371419,16.38628 L37.8371419,17.8351342 C37.8371419,20.8032728 36.328215,22.5942174 33.8233964,22.5942174 C32.3793534,22.5942174 31.2902461,21.9630966 30.8098538,20.8570573 L30.7954831,20.8233958 L30.6647094,20.8233958 L30.6647094,25.995 L28.0089981,25.995 L28.0089981,11.7680576 L30.6144119,11.7680576 L30.6144119,13.4684489 L30.755245,13.4684489 C31.1878041,12.3214394 32.3647671,11.6372582 33.8636344,11.6372582 Z M44.1084369,11.5869508 C46.9965229,11.5869508 48.9381135,13.431007 48.9766565,16.3966834 L48.977241,16.4868949 L48.977241,17.6842119 C48.977241,20.8535802 47.0256955,22.6445249 44.1084369,22.6445249 C41.1805151,22.6445249 39.2483855,20.9089425 39.2100357,17.7794706 L39.2094542,17.6842119 L39.2094542,16.5070179 C39.2094542,13.5388793 41.1710592,11.5869508 44.1084369,11.5869508 Z M58.5782346,11.7781191 L58.5782346,13.4282029 L53.6289544,20.2398295 L53.6289544,20.3605674 L58.7090083,20.3605674 L58.7090083,22.4533566 L50.2690771,22.4533566 L50.2690771,20.9541951 L55.3692501,13.9916462 L55.3692501,13.8608468 L50.3193747,13.8608468 L50.3193747,11.7781191 L58.5782346,11.7781191 Z M63.1394124,7.995 L63.1394124,13.6596171 L63.2802455,13.6596171 C63.5015548,12.8949441 64.3867919,11.6070738 66.4590515,11.6070738 C68.5105886,11.6070738 69.9705659,12.8101479 69.9995603,15.2455841 L70,15.3197624 L70,22.4533566 L67.3543482,22.4533566 L67.3543482,16.054251 C67.3543482,14.4745975 66.4892301,13.8306624 65.3927432,13.8306624 C64.0184126,13.8306624 63.156767,14.8956788 63.1396716,16.4887659 L63.1394124,16.5372023 L63.1394124,22.4533566 L60.50382,22.4533566 L60.50382,7.995 L63.1394124,7.995 Z M21.5563564,11.2878049 L15.9770641,11.2878049 C15.3887235,11.2878049 14.9104838,11.7593044 14.8994415,12.3451306 L14.8992463,12.3658537 L14.8992463,20.7365854 C14.8992463,21.3250521 15.3706448,21.8033943 15.9563455,21.8144389 L15.9770641,21.8146341 L21.5563564,21.8146341 C22.1516187,21.8146341 22.6341742,21.3319753 22.6341742,20.7365854 C22.6341742,20.1481186 22.1627757,19.6697765 21.5770751,19.6587318 L21.5563564,19.6585366 L17.0548344,19.6585049 L17.0548344,13.4438549 L21.5563564,13.4439024 C22.1516187,13.4439024 22.6341742,12.9612436 22.6341742,12.3658537 C22.6341742,11.7704638 22.1516187,11.2878049 21.5563564,11.2878049 Z M44.1084369,13.6394941 C42.644476,13.6394941 41.9002461,14.9214584 41.8855079,16.5091217 L41.8852846,16.5573253 L41.8852846,17.6640889 C41.8852846,19.2638653 42.5793909,20.5819201 44.1084369,20.5819201 C45.6122334,20.5819201 46.2878464,19.2999558 46.3012083,17.7122925 L46.3014106,17.6640889 L46.3014106,16.5573253 C46.3014106,14.9374259 45.5771257,13.6394941 44.1084369,13.6394941 Z M32.8979212,13.7501705 C31.5335495,13.7501705 30.6818629,14.7658806 30.6649656,16.4360828 L30.6647094,16.4868949 L30.6647094,17.8753801 C30.6647094,19.4449721 31.5700656,20.4813052 32.9280998,20.4813052 C34.3123893,20.4813052 35.1149785,19.4458726 35.1308918,17.6385988 L35.131133,17.583597 L35.131133,16.6579402 C35.131133,14.8066266 34.326372,13.7501705 32.8979212,13.7501705 Z M21.0534464,15.6 L18.6442065,15.6 C18.1189751,15.6 17.6931908,16.0258755 17.6931908,16.5512195 C17.6931908,17.0697409 18.1079876,17.4913605 18.623794,17.5022243 L18.6442065,17.502439 L21.0534464,17.502439 C21.5786779,17.502439 22.0044621,17.0765635 22.0044621,16.5512195 C22.0044621,16.0258755 21.5786779,15.6 21.0534464,15.6 Z" id="path-1"></path>
    </defs>
    <g id="Symbols" stroke="none" stroke-width="1" fill="none" fill-rule="evenodd">
        <g id="Group">
            <mask id="mask-2" fill="white">
                <use xlink:href="#path-1"></use>
            </mask>
            <use id="Shape" fill="#2B65D9" xlink:href="#path-1"></use>
        </g>
    </g>
</svg>